<svg width="880" height="100" viewBox="0 0 880 100" fill="none" xmlns="http://www.w3.org/2000/svg">
<path d="M18.5075 97.9539C18.0975 99.1763 16.9524 100 15.6632 100H3.23663C1.16777 100 -0.280139 97.9552 0.406874 96.0038L29.6529 12.9305C31.8189 6.77787 37.6317 2.66178 44.1545 2.66178C50.6749 2.66178 56.4861 6.77483 58.654 12.9242L87.9423 96.0025C88.6304 97.9542 87.1824 100 85.113 100H72.6871C71.3985 100 70.2538 99.177 69.8434 97.9555L44.5323 22.6237H43.7718L18.5075 97.9539Z" fill="#3D50D0"/>
<path d="M103.826 100C102.722 100 101.826 99.1046 101.826 98V7.66179C101.826 4.90036 104.065 2.66178 106.826 2.66178H111.686C114.447 2.66178 116.686 4.90036 116.686 7.66178V85.9456H157.33C160.091 85.9456 162.33 88.1842 162.33 90.9456V94.9999C162.33 97.7613 160.091 99.9999 157.33 99.9999L103.826 100Z" fill="#3D50D0"/>
<path d="M241.364 31.5492C241.012 31.5492 240.687 31.3642 240.503 31.0652C239.137 28.8484 238 27.4163 236.699 25.5228C235.336 23.4632 233.688 21.7046 231.756 20.2471C229.854 18.7896 227.668 17.6964 225.197 16.9676C222.725 16.2072 220.032 15.827 217.117 15.827C211.889 15.827 207.231 17.1419 203.143 19.7718C199.056 22.4017 195.84 26.2674 193.495 31.3688C191.182 36.4384 190.026 42.6172 190.026 49.9048C190.026 57.2559 191.182 63.4821 193.495 68.5835C195.808 73.6849 199.024 77.5663 203.143 80.2279C207.263 82.8578 212.047 84.1728 217.497 84.1728C222.44 84.1728 226.717 83.2222 230.33 81.3211C233.974 79.42 236.778 76.7267 238.742 73.2413C240.707 69.7242 241.689 65.605 241.689 60.8839L243.685 61.1928L245.681 61.5018H220.256C219.703 61.5018 219.256 61.0541 219.256 60.5018V48.7265C219.256 48.1711 219.708 47.7221 220.264 47.7266L257.108 48.0204C257.657 48.0248 258.1 48.4712 258.1 49.0204V58.1396C258.1 66.4729 256.977 74.9523 253.429 81.0359C249.88 87.1196 245 91.809 238.79 95.1043C232.579 98.368 225.45 99.9998 217.402 99.9998C208.435 99.9998 200.561 97.9877 193.78 93.9637C187.031 89.9079 181.756 84.157 177.953 76.7109C174.183 69.2331 172.297 60.3611 172.297 50.0949C172.297 42.2369 173.406 35.2185 175.624 29.0399C177.874 22.8612 181.011 17.6172 185.035 13.308C189.059 8.96704 193.78 5.67172 199.199 3.42205C204.617 1.14069 210.51 0 216.879 0C222.266 0 227.288 0.79214 231.946 2.37642C236.603 3.92901 240.738 6.14701 244.351 9.0304C247.994 11.9138 250.989 15.3359 253.333 19.2965C255.487 22.9338 257.09 26.1888 257.902 30.4016C258.018 31.0028 257.548 31.5492 256.936 31.5492H241.364Z" fill="#3D50D0"/>
<path d="M362.715 49.9999C362.715 60.4878 360.75 69.4707 356.821 76.9485C352.924 84.3946 347.601 90.098 340.852 94.0587C334.135 98.0194 326.514 99.9998 317.991 99.9998C309.467 99.9998 301.831 98.0194 295.082 94.0587C288.365 90.0663 283.041 84.3471 279.112 76.901C275.215 69.4232 273.266 60.4562 273.266 49.9999C273.266 39.512 275.215 30.5449 279.112 23.0988C283.041 15.621 288.365 9.90176 295.082 5.94106C301.831 1.98037 309.467 0 317.991 0C326.514 0 334.135 1.98037 340.852 5.94106C347.601 9.90176 352.924 15.621 356.821 23.0988C360.75 30.5449 362.715 39.512 362.715 49.9999ZM344.987 49.9999C344.987 42.6172 343.83 36.3909 341.517 31.3212C339.236 26.2199 336.067 22.3701 332.012 19.7718C327.956 17.1419 323.282 15.827 317.991 15.827C312.699 15.827 308.026 17.1419 303.97 19.7718C299.914 22.3701 296.73 26.2199 294.417 31.3212C292.135 36.3909 290.995 42.6172 290.995 49.9999C290.995 57.3826 292.135 63.6247 294.417 68.7261C296.73 73.7958 299.914 77.6456 303.97 80.2755C308.026 82.8737 312.699 84.1728 317.991 84.1728C323.282 84.1728 327.956 82.8737 332.012 80.2755C336.067 77.6456 339.236 73.7958 341.517 68.7261C343.83 63.6247 344.987 57.3826 344.987 49.9999Z" fill="#3D50D0"/>
<path d="M384.434 99.9998C381.673 99.9998 379.434 97.7612 379.434 94.9998V4.66159C379.434 3.55702 380.33 2.66159 381.434 2.66159H415.936C423.414 2.66159 429.688 3.96071 434.758 6.55892C439.859 9.15714 443.709 12.801 446.307 17.4905C448.937 22.1482 450.252 27.5824 450.252 33.7927C450.252 40.0348 448.921 45.453 446.259 50.0474C443.63 54.6102 439.748 58.1431 434.615 60.6463C429.482 63.1178 423.176 64.3535 415.699 64.3535H406.872C405.215 64.3535 403.872 63.0103 403.872 61.3535V52.2298C403.872 50.4828 405.359 49.1053 407.101 49.2386L413.322 49.7147C417.695 49.7147 421.275 49.1127 424.064 47.9087C426.852 46.6729 428.912 44.8827 430.242 42.538C431.605 40.1615 432.286 37.2465 432.286 33.7927C432.286 30.339 431.605 27.3922 430.242 24.9524C428.88 22.481 426.805 20.6115 424.016 19.3441C421.228 18.045 417.632 17.3954 413.227 17.3954H397.068V94.9998C397.068 97.7612 394.829 99.9998 392.068 99.9998H384.434ZM429.72 55.8934L449.59 98.5778C449.898 99.2407 449.414 99.9998 448.683 99.9998H435.336C434.599 99.9998 433.922 99.5947 433.574 98.9455L410.471 55.8934H429.72Z" fill="#3D50D0"/>
<path d="M475.547 2.66159C478.308 2.66159 480.547 4.90017 480.547 7.66159V94.9998C480.547 97.7612 478.308 99.9998 475.547 99.9998H470.442C467.68 99.9998 465.442 97.7612 465.442 94.9998V7.66159C465.442 4.90017 467.68 2.66159 470.442 2.66159H475.547Z" fill="#3D50D0"/>
<path d="M500.672 17.4841C497.927 17.4613 495.714 15.2295 495.714 12.4843V7.66159C495.714 4.90016 497.952 2.66159 500.714 2.66159H566.548C569.309 2.66159 571.548 4.90017 571.548 7.66159V12.4843C571.548 15.2295 569.334 17.4613 566.589 17.4841L541.214 17.6947V94.9998C541.214 97.7612 538.976 99.9998 536.214 99.9998H531.047C528.286 99.9998 526.047 97.7612 526.047 94.9998V17.6947L500.672 17.4841Z" fill="#3D50D0"/>
<path d="M591.715 99.866C588.953 99.866 586.715 97.6274 586.715 94.866V7.52781C586.715 4.76639 588.953 2.52781 591.715 2.52781H596.882C599.643 2.52781 601.882 4.76638 601.882 7.52781V45.5005H647.382V7.5278C647.382 4.76638 649.621 2.52781 652.382 2.52781H657.549C660.31 2.52781 662.549 4.76638 662.549 7.52781V94.866C662.549 97.6274 660.31 99.866 657.549 99.866H652.382C649.621 99.866 647.382 97.6274 647.382 94.866V60.6674H601.882V94.866C601.882 97.6274 599.643 99.866 596.882 99.866H591.715Z" fill="#3D50D0"/>
<path d="M678.708 5.49628C678.725 3.85182 680.063 2.52781 681.707 2.52781L695.958 2.52781C697.159 2.52781 698.245 3.24417 698.717 4.34857L728.278 73.5L758.839 4.31562C759.319 3.22889 760.395 2.52781 761.583 2.52781L775.828 2.52781C777.485 2.52781 778.828 3.87095 778.828 5.52781V94.866C778.828 97.6274 776.59 99.866 773.828 99.866H767.944C765.16 99.866 762.912 97.5919 762.944 94.808L763.661 32.9935L735.566 87.5566C734.161 90.2851 731.349 92 728.28 92C725.209 92 722.396 90.2827 720.992 87.5511L692.883 32.8615V94.866C692.883 97.6274 690.644 99.866 687.883 99.866H682.769C679.987 99.866 677.74 97.5953 677.769 94.8135L678.708 5.49628Z" fill="#3D50D0"/>
<path d="M809.86 97.845C809.442 99.0545 808.303 99.866 807.024 99.866H794.623C792.542 99.866 791.093 97.7975 791.804 95.841L822.286 12.0007C824.354 6.31363 829.758 2.52781 835.809 2.52781C841.892 2.52781 847.317 6.35213 849.362 12.0806L879.261 95.8576C879.959 97.8112 878.51 99.866 876.436 99.866H863.296C861.998 99.866 860.847 99.0309 860.444 97.7966L835.873 22.4898L809.86 97.845Z" fill="#3D50D0"/>
</svg>
